<?xml version="1.0" encoding="UTF-8" standalone="no"?>
<!-- Created with Inkscape (http://www.inkscape.org/) -->
<!--
 *
 * Copyright 2012 Booz Allen Hamilton. See the NOTICE file
 * distributed with this work for additional information
 * regarding copyright ownership.  Booz Allen Hamilton licenses this file
 * to you under the Apache License, Version 2.0 (the
 * "License"); you may not use this file except in compliance
 * with the License.  You may obtain a copy of the License at
 *
 *     http://www.apache.org/licenses/LICENSE-2.0
 *
 * Unless required by applicable law or agreed to in writing, software
 * distributed under the License is distributed on an "AS IS" BASIS,
 * WITHOUT WARRANTIES OR CONDITIONS OF ANY KIND, either express or implied.
 * See the License for the specific language governing permissions and
 * limitations under the License.
 *
-->
<svg
   xmlns:dc="http://purl.org/dc/elements/1.1/"
   xmlns:cc="http://creativecommons.org/ns#"
   xmlns:rdf="http://www.w3.org/1999/02/22-rdf-syntax-ns#"
   xmlns:svg="http://www.w3.org/2000/svg"
   xmlns="http://www.w3.org/2000/svg"
   xmlns:sodipodi="http://sodipodi.sourceforge.net/DTD/sodipodi-0.dtd"
   xmlns:inkscape="http://www.inkscape.org/namespaces/inkscape"
   id="svg3843"
   version="1.1"
   inkscape:version="0.48.3.1 r9886"
   width="200"
   height="176"
   sodipodi:docname="bahdit.png">
  <metadata
     id="metadata3849">
    <rdf:RDF>
      <cc:Work
         rdf:about="">
        <dc:format>image/svg+xml</dc:format>
        <dc:type
           rdf:resource="http://purl.org/dc/dcmitype/StillImage" />
        <dc:title></dc:title>
      </cc:Work>
    </rdf:RDF>
  </metadata>
  <defs
     id="defs3847" />
  <sodipodi:namedview
     pagecolor="#ffffff"
     bordercolor="#666666"
     borderopacity="1"
     objecttolerance="10"
     gridtolerance="10"
     guidetolerance="10"
     inkscape:pageopacity="0"
     inkscape:pageshadow="2"
     inkscape:window-width="822"
     inkscape:window-height="636"
     id="namedview3845"
     showgrid="false"
     inkscape:zoom="1.3409091"
     inkscape:cx="100"
     inkscape:cy="88"
     inkscape:window-x="480"
     inkscape:window-y="37"
     inkscape:window-maximized="0"
     inkscape:current-layer="svg3843" />
  <path
     style="fill:#000000;stroke:#000000;stroke-width:1px;stroke-linecap:butt;stroke-linejoin:miter;stroke-opacity:1"
     d="M 34.78125 7.96875 C 32.275102 7.9865147 29.624745 8.2831481 26.84375 8.9375 C -11.190148 17.886652 13.4375 97.6875 13.4375 97.6875 C 13.4375 97.6875 18.654132 76.822563 40.28125 73.09375 C 61.908369 69.364936 67.849047 69.342161 79.78125 74.5625 C 79.78125 74.5625 72.373463 7.7022792 34.78125 7.96875 z M 35.09375 15.78125 C 51.815148 15.342823 62.819916 43.803495 64.125 47.71875 C 65.616526 52.193326 67.125 66.375 67.125 66.375 C 67.125 66.375 55.939618 17.150423 34.3125 21.625 C 12.685381 26.099576 17.15625 76.4375 17.15625 76.4375 C 17.15625 76.4375 6.7123944 29.092691 27.59375 17.90625 C 30.20392 16.507945 32.704979 15.843882 35.09375 15.78125 z "
     id="path5398" />
  <path
     style="fill:#000000;stroke:#000000;stroke-width:1px;stroke-linecap:butt;stroke-linejoin:miter;stroke-opacity:1"
     d="M 60.28125 79.09375 C 51.262182 79.268538 42.887182 81.662606 39.53125 82.78125 C 39.53125 82.78125 17.90625 93.224049 17.90625 105.15625 C 17.90625 117.08846 29.090572 135.72563 39.53125 142.4375 C 49.971928 149.14936 70.092161 152.13082 75.3125 147.65625 C 80.532839 143.18167 87.260063 135.73517 83.53125 111.125 C 79.802436 86.514835 81.275954 82.018538 69.34375 79.78125 C 66.360699 79.221928 63.287606 79.035487 60.28125 79.09375 z M 67.5 123.78125 C 73.472164 123.78125 78.3125 128.65284 78.3125 134.625 C 78.3125 140.59716 73.472164 145.4375 67.5 145.4375 C 61.527836 145.4375 56.6875 140.59716 56.6875 134.625 C 56.6875 128.65284 61.527836 123.78125 67.5 123.78125 z "
     id="path5403" />
  <path
     style="fill:#000000;stroke:#000000;stroke-width:1px;stroke-linecap:butt;stroke-linejoin:miter;stroke-opacity:1"
     d="M 110.0625 154.25 C 105.55421 154.25 101.77354 156.38174 100.8125 156.96875 C 99.493856 156.20875 95.895021 154.375 91.71875 154.375 C 91.066208 154.375 90.434454 154.36772 89.8125 154.375 C 85.458819 154.42598 82.03125 154.83104 82.03125 158.09375 C 82.03125 161.82257 82.029661 170.03549 87.25 170.78125 C 87.986121 170.88641 88.748859 171.03766 89.5 171.1875 C 89.499875 171.17697 89.5 171.16681 89.5 171.15625 C 89.5 169.71469 90.652193 168.53125 92.09375 168.53125 C 93.535307 168.53125 94.71875 169.71469 94.71875 171.15625 C 94.71875 171.55084 94.625496 171.91468 94.46875 172.25 C 97.030209 172.78763 99.139214 173.07953 99.9375 172.28125 C 100.25165 171.9671 100.60536 171.17195 100.9375 170.125 C 101.25518 171.10786 101.57559 171.85492 101.875 172.15625 C 102.66822 172.95458 104.7673 172.66263 107.3125 172.125 C 107.15679 171.78968 107.0625 171.42584 107.0625 171.03125 C 107.0625 169.58969 108.25509 168.40625 109.6875 168.40625 C 111.1199 168.40625 112.25 169.58969 112.25 171.03125 C 112.25 171.04175 112.25013 171.052 112.25 171.0625 C 112.99637 170.91266 113.76855 170.76141 114.5 170.65625 C 119.68762 169.91049 119.6875 161.69757 119.6875 157.96875 C 119.6875 154.70604 116.26354 154.301 111.9375 154.25 C 111.31949 154.243 110.7109 154.25 110.0625 154.25 z "
     id="path5408" />
  <path
     inkscape:connector-curvature="0"
     style="fill:#000000;stroke:#000000;stroke-width:0.99682093px;stroke-linecap:butt;stroke-linejoin:miter;stroke-opacity:1"
     d="m 166.63078,7.83517 c 2.49024,0.0178 5.12377,0.3144 7.88711,0.96875 37.79246,8.94915 13.32115,88.75 13.32115,88.75 0,0 -5.18352,-20.86494 -26.67335,-24.59375 -21.48983,-3.72881 -27.3928,-3.75159 -39.24925,1.46875 0,0 7.36076,-66.86022 44.71434,-66.59375 z m -0.31052,7.8125 c -16.61525,-0.43843 -27.55016,28.02225 -28.84696,31.9375 -1.48206,4.47458 -2.98095,18.65625 -2.98095,18.65625 0,0 11.11437,-49.22458 32.6042,-44.75 21.48983,4.47458 17.04734,54.8125 17.04734,54.8125 0,0 10.37756,-47.34481 -10.37124,-58.53125 -2.5936,-1.3983 -5.07878,-2.06237 -7.45239,-2.125 z"
     id="path5398-3" />
  <path
     inkscape:connector-curvature="0"
     style="fill:#000000;stroke:#000000;stroke-width:0.99682093px;stroke-linecap:butt;stroke-linejoin:miter;stroke-opacity:1"
     d="m 141.29265,78.96017 c 8.96182,0.17479 17.28365,2.56886 20.61828,3.6875 0,0 21.48772,10.4428 21.48772,22.375 0,11.93221 -11.11332,30.56938 -21.48772,37.28125 -10.3744,6.71186 -30.36691,9.69332 -35.55411,5.21875 -5.1872,-4.47458 -11.87172,-11.92108 -8.16658,-36.53125 3.70515,-24.61016 2.24098,-29.10646 14.09744,-31.34375 2.96411,-0.55932 6.0177,-0.74576 9.00497,-0.6875 z m -7.17292,44.6875 c -5.93426,0 -10.74387,4.87159 -10.74387,10.84375 0,5.97216 4.80961,10.8125 10.74387,10.8125 5.93425,0 10.74386,-4.84034 10.74386,-10.8125 0,-5.97216 -4.80961,-10.84375 -10.74386,-10.84375 z"
     id="path5403-4" />
</svg>
